<mxfile host="app.diagrams.net" modified="2023-03-26T03:24:37.250Z" agent="Mozilla/5.0 (Windows NT 10.0; Win64; x64) AppleWebKit/537.36 (KHTML, like Gecko) Chrome/110.0.0.0 Safari/537.36 OPR/96.0.0.0" etag="z5Ab8GHP7CjJMllUPc9Z" version="21.1.1" type="device">
  <diagram name="Página-1" id="QeelMtWA8Ye1pQ3akFsj">
    <mxGraphModel dx="3064" dy="2647" grid="1" gridSize="10" guides="1" tooltips="1" connect="1" arrows="1" fold="1" page="1" pageScale="1" pageWidth="827" pageHeight="1169" math="0" shadow="0">
      <root>
        <mxCell id="0" />
        <mxCell id="1" parent="0" />
        <mxCell id="26RAN5CGy5tsxNI2XHrX-3" style="edgeStyle=orthogonalEdgeStyle;rounded=0;orthogonalLoop=1;jettySize=auto;html=1;" edge="1" parent="1" source="26RAN5CGy5tsxNI2XHrX-1" target="26RAN5CGy5tsxNI2XHrX-4">
          <mxGeometry relative="1" as="geometry">
            <mxPoint x="200" y="180" as="targetPoint" />
          </mxGeometry>
        </mxCell>
        <mxCell id="26RAN5CGy5tsxNI2XHrX-1" value="Root" style="rounded=1;whiteSpace=wrap;html=1;" vertex="1" parent="1">
          <mxGeometry x="140" y="60" width="120" height="60" as="geometry" />
        </mxCell>
        <mxCell id="26RAN5CGy5tsxNI2XHrX-5" style="edgeStyle=orthogonalEdgeStyle;rounded=0;orthogonalLoop=1;jettySize=auto;html=1;" edge="1" parent="1" source="26RAN5CGy5tsxNI2XHrX-4" target="26RAN5CGy5tsxNI2XHrX-6">
          <mxGeometry relative="1" as="geometry">
            <mxPoint x="40" y="280" as="targetPoint" />
          </mxGeometry>
        </mxCell>
        <mxCell id="26RAN5CGy5tsxNI2XHrX-7" style="edgeStyle=orthogonalEdgeStyle;rounded=0;orthogonalLoop=1;jettySize=auto;html=1;" edge="1" parent="1" source="26RAN5CGy5tsxNI2XHrX-4" target="26RAN5CGy5tsxNI2XHrX-8">
          <mxGeometry relative="1" as="geometry">
            <mxPoint x="360" y="260" as="targetPoint" />
          </mxGeometry>
        </mxCell>
        <mxCell id="26RAN5CGy5tsxNI2XHrX-4" value="main_frame" style="rounded=1;whiteSpace=wrap;html=1;" vertex="1" parent="1">
          <mxGeometry x="140" y="170" width="120" height="60" as="geometry" />
        </mxCell>
        <mxCell id="26RAN5CGy5tsxNI2XHrX-9" style="edgeStyle=orthogonalEdgeStyle;rounded=0;orthogonalLoop=1;jettySize=auto;html=1;" edge="1" parent="1" source="26RAN5CGy5tsxNI2XHrX-6" target="26RAN5CGy5tsxNI2XHrX-10">
          <mxGeometry relative="1" as="geometry">
            <mxPoint x="40" y="360" as="targetPoint" />
          </mxGeometry>
        </mxCell>
        <mxCell id="26RAN5CGy5tsxNI2XHrX-6" value="frame1" style="rounded=1;whiteSpace=wrap;html=1;" vertex="1" parent="1">
          <mxGeometry x="-10" y="250" width="120" height="60" as="geometry" />
        </mxCell>
        <mxCell id="26RAN5CGy5tsxNI2XHrX-11" style="edgeStyle=orthogonalEdgeStyle;rounded=0;orthogonalLoop=1;jettySize=auto;html=1;" edge="1" parent="1" source="26RAN5CGy5tsxNI2XHrX-8" target="26RAN5CGy5tsxNI2XHrX-12">
          <mxGeometry relative="1" as="geometry">
            <mxPoint x="280" y="360" as="targetPoint" />
          </mxGeometry>
        </mxCell>
        <mxCell id="26RAN5CGy5tsxNI2XHrX-33" style="edgeStyle=orthogonalEdgeStyle;rounded=0;orthogonalLoop=1;jettySize=auto;html=1;" edge="1" parent="1" source="26RAN5CGy5tsxNI2XHrX-8" target="26RAN5CGy5tsxNI2XHrX-34">
          <mxGeometry relative="1" as="geometry">
            <mxPoint x="900" y="380" as="targetPoint" />
          </mxGeometry>
        </mxCell>
        <mxCell id="26RAN5CGy5tsxNI2XHrX-47" style="edgeStyle=orthogonalEdgeStyle;rounded=0;orthogonalLoop=1;jettySize=auto;html=1;" edge="1" parent="1" source="26RAN5CGy5tsxNI2XHrX-8" target="26RAN5CGy5tsxNI2XHrX-48">
          <mxGeometry relative="1" as="geometry">
            <mxPoint x="1522" y="390" as="targetPoint" />
          </mxGeometry>
        </mxCell>
        <mxCell id="26RAN5CGy5tsxNI2XHrX-8" value="frame2" style="rounded=1;whiteSpace=wrap;html=1;" vertex="1" parent="1">
          <mxGeometry x="300" y="250" width="120" height="60" as="geometry" />
        </mxCell>
        <mxCell id="26RAN5CGy5tsxNI2XHrX-10" value="FrameAzul" style="rounded=1;whiteSpace=wrap;html=1;" vertex="1" parent="1">
          <mxGeometry x="-10" y="350" width="120" height="60" as="geometry" />
        </mxCell>
        <mxCell id="26RAN5CGy5tsxNI2XHrX-13" style="edgeStyle=orthogonalEdgeStyle;rounded=0;orthogonalLoop=1;jettySize=auto;html=1;" edge="1" parent="1" source="26RAN5CGy5tsxNI2XHrX-12" target="26RAN5CGy5tsxNI2XHrX-14">
          <mxGeometry relative="1" as="geometry">
            <mxPoint x="360" y="460" as="targetPoint" />
          </mxGeometry>
        </mxCell>
        <mxCell id="26RAN5CGy5tsxNI2XHrX-21" style="edgeStyle=orthogonalEdgeStyle;rounded=0;orthogonalLoop=1;jettySize=auto;html=1;" edge="1" parent="1" source="26RAN5CGy5tsxNI2XHrX-12" target="26RAN5CGy5tsxNI2XHrX-22">
          <mxGeometry relative="1" as="geometry">
            <mxPoint x="520" y="380" as="targetPoint" />
          </mxGeometry>
        </mxCell>
        <mxCell id="26RAN5CGy5tsxNI2XHrX-12" value="frame3" style="rounded=1;whiteSpace=wrap;html=1;" vertex="1" parent="1">
          <mxGeometry x="300" y="350" width="120" height="60" as="geometry" />
        </mxCell>
        <mxCell id="26RAN5CGy5tsxNI2XHrX-15" style="edgeStyle=orthogonalEdgeStyle;rounded=0;orthogonalLoop=1;jettySize=auto;html=1;" edge="1" parent="1" source="26RAN5CGy5tsxNI2XHrX-14" target="26RAN5CGy5tsxNI2XHrX-16">
          <mxGeometry relative="1" as="geometry">
            <mxPoint y="530" as="targetPoint" />
          </mxGeometry>
        </mxCell>
        <mxCell id="26RAN5CGy5tsxNI2XHrX-17" style="edgeStyle=orthogonalEdgeStyle;rounded=0;orthogonalLoop=1;jettySize=auto;html=1;" edge="1" parent="1" source="26RAN5CGy5tsxNI2XHrX-14" target="26RAN5CGy5tsxNI2XHrX-18">
          <mxGeometry relative="1" as="geometry">
            <mxPoint x="160" y="610" as="targetPoint" />
          </mxGeometry>
        </mxCell>
        <mxCell id="26RAN5CGy5tsxNI2XHrX-19" style="edgeStyle=orthogonalEdgeStyle;rounded=0;orthogonalLoop=1;jettySize=auto;html=1;" edge="1" parent="1" source="26RAN5CGy5tsxNI2XHrX-14" target="26RAN5CGy5tsxNI2XHrX-20">
          <mxGeometry relative="1" as="geometry">
            <mxPoint x="320" y="570" as="targetPoint" />
          </mxGeometry>
        </mxCell>
        <mxCell id="26RAN5CGy5tsxNI2XHrX-14" value="frame311" style="rounded=1;whiteSpace=wrap;html=1;" vertex="1" parent="1">
          <mxGeometry x="100" y="470" width="120" height="60" as="geometry" />
        </mxCell>
        <mxCell id="26RAN5CGy5tsxNI2XHrX-16" value="Labels (11)" style="rounded=1;whiteSpace=wrap;html=1;" vertex="1" parent="1">
          <mxGeometry x="-60" y="590" width="120" height="60" as="geometry" />
        </mxCell>
        <mxCell id="26RAN5CGy5tsxNI2XHrX-18" value="Button" style="rounded=1;whiteSpace=wrap;html=1;" vertex="1" parent="1">
          <mxGeometry x="100" y="590" width="120" height="60" as="geometry" />
        </mxCell>
        <mxCell id="26RAN5CGy5tsxNI2XHrX-20" value="Imágenes (6)" style="rounded=1;whiteSpace=wrap;html=1;" vertex="1" parent="1">
          <mxGeometry x="260" y="590" width="120" height="60" as="geometry" />
        </mxCell>
        <mxCell id="26RAN5CGy5tsxNI2XHrX-24" style="edgeStyle=orthogonalEdgeStyle;rounded=0;orthogonalLoop=1;jettySize=auto;html=1;entryX=0.5;entryY=0;entryDx=0;entryDy=0;" edge="1" parent="1" source="26RAN5CGy5tsxNI2XHrX-22" target="26RAN5CGy5tsxNI2XHrX-23">
          <mxGeometry relative="1" as="geometry" />
        </mxCell>
        <mxCell id="26RAN5CGy5tsxNI2XHrX-25" style="edgeStyle=orthogonalEdgeStyle;rounded=0;orthogonalLoop=1;jettySize=auto;html=1;" edge="1" parent="1" source="26RAN5CGy5tsxNI2XHrX-22" target="26RAN5CGy5tsxNI2XHrX-26">
          <mxGeometry relative="1" as="geometry">
            <mxPoint x="610" y="610" as="targetPoint" />
          </mxGeometry>
        </mxCell>
        <mxCell id="26RAN5CGy5tsxNI2XHrX-27" style="edgeStyle=orthogonalEdgeStyle;rounded=0;orthogonalLoop=1;jettySize=auto;html=1;" edge="1" parent="1" source="26RAN5CGy5tsxNI2XHrX-22" target="26RAN5CGy5tsxNI2XHrX-28">
          <mxGeometry relative="1" as="geometry">
            <mxPoint x="760" y="560" as="targetPoint" />
          </mxGeometry>
        </mxCell>
        <mxCell id="26RAN5CGy5tsxNI2XHrX-22" value="frame32" style="rounded=1;whiteSpace=wrap;html=1;" vertex="1" parent="1">
          <mxGeometry x="470" y="470" width="120" height="60" as="geometry" />
        </mxCell>
        <mxCell id="26RAN5CGy5tsxNI2XHrX-23" value="Labels (3)" style="rounded=1;whiteSpace=wrap;html=1;" vertex="1" parent="1">
          <mxGeometry x="400" y="590" width="120" height="60" as="geometry" />
        </mxCell>
        <mxCell id="26RAN5CGy5tsxNI2XHrX-26" value="Imágenes (2)" style="rounded=1;whiteSpace=wrap;html=1;" vertex="1" parent="1">
          <mxGeometry x="550" y="590" width="120" height="60" as="geometry" />
        </mxCell>
        <mxCell id="26RAN5CGy5tsxNI2XHrX-30" style="edgeStyle=orthogonalEdgeStyle;rounded=0;orthogonalLoop=1;jettySize=auto;html=1;entryX=0.5;entryY=0;entryDx=0;entryDy=0;" edge="1" parent="1" source="26RAN5CGy5tsxNI2XHrX-28" target="26RAN5CGy5tsxNI2XHrX-29">
          <mxGeometry relative="1" as="geometry" />
        </mxCell>
        <mxCell id="26RAN5CGy5tsxNI2XHrX-28" value="Frame321" style="rounded=1;whiteSpace=wrap;html=1;" vertex="1" parent="1">
          <mxGeometry x="720" y="590" width="120" height="60" as="geometry" />
        </mxCell>
        <mxCell id="26RAN5CGy5tsxNI2XHrX-29" value="Labels (4)" style="rounded=1;whiteSpace=wrap;html=1;" vertex="1" parent="1">
          <mxGeometry x="720" y="690" width="120" height="60" as="geometry" />
        </mxCell>
        <mxCell id="26RAN5CGy5tsxNI2XHrX-35" style="edgeStyle=orthogonalEdgeStyle;rounded=0;orthogonalLoop=1;jettySize=auto;html=1;" edge="1" parent="1" source="26RAN5CGy5tsxNI2XHrX-34" target="26RAN5CGy5tsxNI2XHrX-36">
          <mxGeometry relative="1" as="geometry">
            <mxPoint x="840" y="480" as="targetPoint" />
          </mxGeometry>
        </mxCell>
        <mxCell id="26RAN5CGy5tsxNI2XHrX-41" style="edgeStyle=orthogonalEdgeStyle;rounded=0;orthogonalLoop=1;jettySize=auto;html=1;" edge="1" parent="1" source="26RAN5CGy5tsxNI2XHrX-34" target="26RAN5CGy5tsxNI2XHrX-42">
          <mxGeometry relative="1" as="geometry">
            <mxPoint x="1240" y="500" as="targetPoint" />
          </mxGeometry>
        </mxCell>
        <mxCell id="26RAN5CGy5tsxNI2XHrX-34" value="frame33" style="rounded=1;whiteSpace=wrap;html=1;" vertex="1" parent="1">
          <mxGeometry x="880" y="350" width="120" height="60" as="geometry" />
        </mxCell>
        <mxCell id="26RAN5CGy5tsxNI2XHrX-38" style="edgeStyle=orthogonalEdgeStyle;rounded=0;orthogonalLoop=1;jettySize=auto;html=1;entryX=0.5;entryY=0;entryDx=0;entryDy=0;" edge="1" parent="1" source="26RAN5CGy5tsxNI2XHrX-36" target="26RAN5CGy5tsxNI2XHrX-37">
          <mxGeometry relative="1" as="geometry" />
        </mxCell>
        <mxCell id="26RAN5CGy5tsxNI2XHrX-39" style="edgeStyle=orthogonalEdgeStyle;rounded=0;orthogonalLoop=1;jettySize=auto;html=1;" edge="1" parent="1" source="26RAN5CGy5tsxNI2XHrX-36" target="26RAN5CGy5tsxNI2XHrX-40">
          <mxGeometry relative="1" as="geometry">
            <mxPoint x="1100" y="600" as="targetPoint" />
          </mxGeometry>
        </mxCell>
        <mxCell id="26RAN5CGy5tsxNI2XHrX-36" value="frame331" style="rounded=1;whiteSpace=wrap;html=1;" vertex="1" parent="1">
          <mxGeometry x="880" y="470" width="120" height="60" as="geometry" />
        </mxCell>
        <mxCell id="26RAN5CGy5tsxNI2XHrX-37" value="Label" style="rounded=1;whiteSpace=wrap;html=1;" vertex="1" parent="1">
          <mxGeometry x="880" y="590" width="120" height="60" as="geometry" />
        </mxCell>
        <mxCell id="26RAN5CGy5tsxNI2XHrX-40" value="Imagen" style="rounded=1;whiteSpace=wrap;html=1;" vertex="1" parent="1">
          <mxGeometry x="1040" y="590" width="120" height="60" as="geometry" />
        </mxCell>
        <mxCell id="26RAN5CGy5tsxNI2XHrX-43" style="edgeStyle=orthogonalEdgeStyle;rounded=0;orthogonalLoop=1;jettySize=auto;html=1;entryX=0.5;entryY=0;entryDx=0;entryDy=0;" edge="1" parent="1" source="26RAN5CGy5tsxNI2XHrX-42" target="26RAN5CGy5tsxNI2XHrX-44">
          <mxGeometry relative="1" as="geometry">
            <mxPoint x="1270" y="610" as="targetPoint" />
          </mxGeometry>
        </mxCell>
        <mxCell id="26RAN5CGy5tsxNI2XHrX-46" style="edgeStyle=orthogonalEdgeStyle;rounded=0;orthogonalLoop=1;jettySize=auto;html=1;" edge="1" parent="1" source="26RAN5CGy5tsxNI2XHrX-42" target="26RAN5CGy5tsxNI2XHrX-45">
          <mxGeometry relative="1" as="geometry" />
        </mxCell>
        <mxCell id="26RAN5CGy5tsxNI2XHrX-42" value="frame332" style="rounded=1;whiteSpace=wrap;html=1;" vertex="1" parent="1">
          <mxGeometry x="1210" y="470" width="120" height="60" as="geometry" />
        </mxCell>
        <mxCell id="26RAN5CGy5tsxNI2XHrX-44" value="Labels (2)" style="rounded=1;whiteSpace=wrap;html=1;" vertex="1" parent="1">
          <mxGeometry x="1210" y="590" width="120" height="60" as="geometry" />
        </mxCell>
        <mxCell id="26RAN5CGy5tsxNI2XHrX-45" value="Imagen" style="rounded=1;whiteSpace=wrap;html=1;" vertex="1" parent="1">
          <mxGeometry x="1370" y="590" width="120" height="60" as="geometry" />
        </mxCell>
        <mxCell id="26RAN5CGy5tsxNI2XHrX-50" style="edgeStyle=orthogonalEdgeStyle;rounded=0;orthogonalLoop=1;jettySize=auto;html=1;entryX=0.5;entryY=0;entryDx=0;entryDy=0;" edge="1" parent="1" source="26RAN5CGy5tsxNI2XHrX-48" target="26RAN5CGy5tsxNI2XHrX-49">
          <mxGeometry relative="1" as="geometry" />
        </mxCell>
        <mxCell id="26RAN5CGy5tsxNI2XHrX-52" style="edgeStyle=orthogonalEdgeStyle;rounded=0;orthogonalLoop=1;jettySize=auto;html=1;entryX=0.5;entryY=0;entryDx=0;entryDy=0;" edge="1" parent="1" source="26RAN5CGy5tsxNI2XHrX-48" target="26RAN5CGy5tsxNI2XHrX-51">
          <mxGeometry relative="1" as="geometry" />
        </mxCell>
        <mxCell id="26RAN5CGy5tsxNI2XHrX-48" value="frame4" style="rounded=1;whiteSpace=wrap;html=1;" vertex="1" parent="1">
          <mxGeometry x="1540" y="350" width="120" height="60" as="geometry" />
        </mxCell>
        <mxCell id="26RAN5CGy5tsxNI2XHrX-49" value="Labels (5)" style="rounded=1;whiteSpace=wrap;html=1;" vertex="1" parent="1">
          <mxGeometry x="1460" y="470" width="120" height="60" as="geometry" />
        </mxCell>
        <mxCell id="26RAN5CGy5tsxNI2XHrX-51" value="Imagen" style="rounded=1;whiteSpace=wrap;html=1;" vertex="1" parent="1">
          <mxGeometry x="1610" y="470" width="120" height="60" as="geometry" />
        </mxCell>
        <mxCell id="26RAN5CGy5tsxNI2XHrX-53" style="edgeStyle=orthogonalEdgeStyle;rounded=0;orthogonalLoop=1;jettySize=auto;html=1;exitX=1;exitY=0.75;exitDx=0;exitDy=0;entryX=1;entryY=0.5;entryDx=0;entryDy=0;" edge="1" parent="1" source="26RAN5CGy5tsxNI2XHrX-51" target="26RAN5CGy5tsxNI2XHrX-51">
          <mxGeometry relative="1" as="geometry" />
        </mxCell>
      </root>
    </mxGraphModel>
  </diagram>
</mxfile>
